name rise32.9588peak41.5061fall63.4684.mot
datacolumns 19
datarows 30
range 13.86827700000000 13.91662600000000
endheader
time	ground_force1_vx	ground_force1_vy	ground_force1_vz	ground_force1_px	ground_force1_py	ground_force1_pz	ground_force2_vx	ground_force2_vy	ground_force2_vz	ground_force2_px	ground_force2_py	ground_force2_pz	ground_torque1_x	ground_torque1_y	ground_torque1_z	ground_torque2_x	ground_torque2_y	ground_torque2_z	
13.86827700000000	48.98129300000000	758.23853199999996	44.96435200000000	0.27909200000000	0.00000000000000	0.10571800000000	0.00000000000000	0.00000000000000	0.00000000000000	0.00000000000000	0.00000000000000	0.00000000000000	0.00000000000000	13.44201700000000	0.00000000000000	0.00000000000000	0.00000000000000	0.00000000000000	
13.86994400000000	48.54437000000000	761.13533199999995	45.20736200000000	0.27833500000000	0.00000000000000	0.10571500000000	0.00000000000000	0.00000000000000	0.00000000000000	0.00000000000000	0.00000000000000	0.00000000000000	0.00000000000000	13.56630300000000	0.00000000000000	0.00000000000000	0.00000000000000	0.00000000000000	
13.87161100000000	48.10491400000000	763.91449200000000	45.44779700000000	0.27758500000000	0.00000000000000	0.10571300000000	0.00000000000000	0.00000000000000	0.00000000000000	0.00000000000000	0.00000000000000	0.00000000000000	0.00000000000000	13.69015100000000	0.00000000000000	0.00000000000000	0.00000000000000	0.00000000000000	
13.87328300000000	47.66315900000000	766.57414800000004	45.68506300000000	0.27683900000000	0.00000000000000	0.10571200000000	0.00000000000000	0.00000000000000	0.00000000000000	0.00000000000000	0.00000000000000	0.00000000000000	0.00000000000000	13.81321200000000	0.00000000000000	0.00000000000000	0.00000000000000	0.00000000000000	
13.87494700000000	47.21930000000000	769.11250299999995	45.91853700000000	0.27609800000000	0.00000000000000	0.10571200000000	0.00000000000000	0.00000000000000	0.00000000000000	0.00000000000000	0.00000000000000	0.00000000000000	0.00000000000000	13.93511900000000	0.00000000000000	0.00000000000000	0.00000000000000	0.00000000000000	
13.87661200000000	46.77349500000000	771.52784499999996	46.14756900000000	0.27535900000000	0.00000000000000	0.10571300000000	0.00000000000000	0.00000000000000	0.00000000000000	0.00000000000000	0.00000000000000	0.00000000000000	0.00000000000000	14.05550000000000	0.00000000000000	0.00000000000000	0.00000000000000	0.00000000000000	
13.87828800000000	46.32586500000000	773.81855499999995	46.37149100000000	0.27462200000000	0.00000000000000	0.10571400000000	0.00000000000000	0.00000000000000	0.00000000000000	0.00000000000000	0.00000000000000	0.00000000000000	0.00000000000000	14.17397400000000	0.00000000000000	0.00000000000000	0.00000000000000	0.00000000000000	
13.87995200000000	45.87650100000000	775.98311999999999	46.58962000000000	0.27388500000000	0.00000000000000	0.10571700000000	0.00000000000000	0.00000000000000	0.00000000000000	0.00000000000000	0.00000000000000	0.00000000000000	0.00000000000000	14.29015700000000	0.00000000000000	0.00000000000000	0.00000000000000	0.00000000000000	
13.88161300000000	45.42546500000000	778.02014199999996	46.80126500000000	0.27314700000000	0.00000000000000	0.10572100000000	0.00000000000000	0.00000000000000	0.00000000000000	0.00000000000000	0.00000000000000	0.00000000000000	0.00000000000000	14.40366300000000	0.00000000000000	0.00000000000000	0.00000000000000	0.00000000000000	
13.88328400000000	44.97279400000000	779.92835000000002	47.00573200000000	0.27240700000000	0.00000000000000	0.10572700000000	0.00000000000000	0.00000000000000	0.00000000000000	0.00000000000000	0.00000000000000	0.00000000000000	0.00000000000000	14.51411100000000	0.00000000000000	0.00000000000000	0.00000000000000	0.00000000000000	
13.88494600000000	44.51850200000000	781.70660799999996	47.20233000000000	0.27166300000000	0.00000000000000	0.10573300000000	0.00000000000000	0.00000000000000	0.00000000000000	0.00000000000000	0.00000000000000	0.00000000000000	0.00000000000000	14.62111900000000	0.00000000000000	0.00000000000000	0.00000000000000	0.00000000000000	
13.88661200000000	44.06258600000000	783.35392800000000	47.39037300000000	0.27091400000000	0.00000000000000	0.10574000000000	0.00000000000000	0.00000000000000	0.00000000000000	0.00000000000000	0.00000000000000	0.00000000000000	0.00000000000000	14.72431600000000	0.00000000000000	0.00000000000000	0.00000000000000	0.00000000000000	
13.88827700000000	43.60502600000000	784.86947499999997	47.56919100000000	0.27016000000000	0.00000000000000	0.10574900000000	0.00000000000000	0.00000000000000	0.00000000000000	0.00000000000000	0.00000000000000	0.00000000000000	0.00000000000000	14.82334000000000	0.00000000000000	0.00000000000000	0.00000000000000	0.00000000000000	
13.88994900000000	43.14579100000000	786.25257899999997	47.73813000000000	0.26939900000000	0.00000000000000	0.10575900000000	0.00000000000000	0.00000000000000	0.00000000000000	0.00000000000000	0.00000000000000	0.00000000000000	0.00000000000000	14.91783900000000	0.00000000000000	0.00000000000000	0.00000000000000	0.00000000000000	
13.89161400000000	42.68483900000000	787.50274000000002	47.89655800000000	0.26862900000000	0.00000000000000	0.10577000000000	0.00000000000000	0.00000000000000	0.00000000000000	0.00000000000000	0.00000000000000	0.00000000000000	0.00000000000000	15.00747600000000	0.00000000000000	0.00000000000000	0.00000000000000	0.00000000000000	
13.89327700000000	42.22212600000000	788.61963800000001	48.04387200000000	0.26785100000000	0.00000000000000	0.10578300000000	0.00000000000000	0.00000000000000	0.00000000000000	0.00000000000000	0.00000000000000	0.00000000000000	0.00000000000000	15.09193200000000	0.00000000000000	0.00000000000000	0.00000000000000	0.00000000000000	
13.89494700000000	41.75760100000000	789.60313699999995	48.17949800000000	0.26706300000000	0.00000000000000	0.10579600000000	0.00000000000000	0.00000000000000	0.00000000000000	0.00000000000000	0.00000000000000	0.00000000000000	0.00000000000000	15.17090400000000	0.00000000000000	0.00000000000000	0.00000000000000	0.00000000000000	
13.89661200000000	41.29121600000000	790.45329200000003	48.30289700000000	0.26626500000000	0.00000000000000	0.10581100000000	0.00000000000000	0.00000000000000	0.00000000000000	0.00000000000000	0.00000000000000	0.00000000000000	0.00000000000000	15.24411100000000	0.00000000000000	0.00000000000000	0.00000000000000	0.00000000000000	
13.89827900000000	40.82292500000000	791.17035699999997	48.41357200000000	0.26545500000000	0.00000000000000	0.10582700000000	0.00000000000000	0.00000000000000	0.00000000000000	0.00000000000000	0.00000000000000	0.00000000000000	0.00000000000000	15.31129400000000	0.00000000000000	0.00000000000000	0.00000000000000	0.00000000000000	
13.89994500000000	40.35268700000000	791.75478499999997	48.51106500000000	0.26463300000000	0.00000000000000	0.10584500000000	0.00000000000000	0.00000000000000	0.00000000000000	0.00000000000000	0.00000000000000	0.00000000000000	0.00000000000000	15.37221600000000	0.00000000000000	0.00000000000000	0.00000000000000	0.00000000000000	
13.90161200000000	39.88046900000000	792.20723199999998	48.59496400000000	0.26379800000000	0.00000000000000	0.10586300000000	0.00000000000000	0.00000000000000	0.00000000000000	0.00000000000000	0.00000000000000	0.00000000000000	0.00000000000000	15.42666600000000	0.00000000000000	0.00000000000000	0.00000000000000	0.00000000000000	
13.90327800000000	39.40624900000000	792.52856399999996	48.66490500000000	0.26295100000000	0.00000000000000	0.10588300000000	0.00000000000000	0.00000000000000	0.00000000000000	0.00000000000000	0.00000000000000	0.00000000000000	0.00000000000000	15.47446000000000	0.00000000000000	0.00000000000000	0.00000000000000	0.00000000000000	
13.90494500000000	38.93001700000000	792.71985600000005	48.72057400000000	0.26208900000000	0.00000000000000	0.10590500000000	0.00000000000000	0.00000000000000	0.00000000000000	0.00000000000000	0.00000000000000	0.00000000000000	0.00000000000000	15.51544100000000	0.00000000000000	0.00000000000000	0.00000000000000	0.00000000000000	
13.90661200000000	38.45177600000000	792.78239599999995	48.76170900000000	0.26121400000000	0.00000000000000	0.10592700000000	0.00000000000000	0.00000000000000	0.00000000000000	0.00000000000000	0.00000000000000	0.00000000000000	0.00000000000000	15.54947800000000	0.00000000000000	0.00000000000000	0.00000000000000	0.00000000000000	
13.90828000000000	37.97154600000000	792.71768099999997	48.78810100000000	0.26032400000000	0.00000000000000	0.10595100000000	0.00000000000000	0.00000000000000	0.00000000000000	0.00000000000000	0.00000000000000	0.00000000000000	0.00000000000000	15.57646900000000	0.00000000000000	0.00000000000000	0.00000000000000	0.00000000000000	
13.90994600000000	37.48936400000000	792.52742200000000	48.79959600000000	0.25942100000000	0.00000000000000	0.10597600000000	0.00000000000000	0.00000000000000	0.00000000000000	0.00000000000000	0.00000000000000	0.00000000000000	0.00000000000000	15.59634300000000	0.00000000000000	0.00000000000000	0.00000000000000	0.00000000000000	
13.91161600000000	37.00528300000000	792.21353999999997	48.79609700000000	0.25850200000000	0.00000000000000	0.10600300000000	0.00000000000000	0.00000000000000	0.00000000000000	0.00000000000000	0.00000000000000	0.00000000000000	0.00000000000000	15.60905400000000	0.00000000000000	0.00000000000000	0.00000000000000	0.00000000000000	
13.91328200000000	36.51938000000000	791.77816600000006	48.77756100000000	0.25756900000000	0.00000000000000	0.10603100000000	0.00000000000000	0.00000000000000	0.00000000000000	0.00000000000000	0.00000000000000	0.00000000000000	0.00000000000000	15.61459000000000	0.00000000000000	0.00000000000000	0.00000000000000	0.00000000000000	
13.91494400000000	36.03174700000000	791.22363700000005	48.74400200000000	0.25662200000000	0.00000000000000	0.10606000000000	0.00000000000000	0.00000000000000	0.00000000000000	0.00000000000000	0.00000000000000	0.00000000000000	0.00000000000000	15.61296200000000	0.00000000000000	0.00000000000000	0.00000000000000	0.00000000000000	
13.91662600000000	35.54250000000000	790.55249500000002	48.69548900000000	0.25566100000000	0.00000000000000	0.10609000000000	0.00000000000000	0.00000000000000	0.00000000000000	0.00000000000000	0.00000000000000	0.00000000000000	0.00000000000000	15.60421300000000	0.00000000000000	0.00000000000000	0.00000000000000	0.00000000000000	
